#!OML:ASF F:\VICON\USERDATA\INSTALL\rory3\rory3.ASF
:FULLY-SPECIFIED
:DEGREES
76
root 1.12458 17.8085 -17.0324 6.18253 -2.69403 0.13782
lowerback 5.63087 -0.582416 -1.66396
upperback -0.288129 -0.817769 2.04247
thorax -3.40336 -0.359676 3.11557
lowerneck -17.4925 -5.50851 -10.5092
upperneck 17.2265 -6.26813 7.09721
head 8.83629 -2.91663 3.32803
rclavicle -9.14409e-015 1.03368e-014
rhumerus -30.9486 -5.63728 -82.5459
rradius 33.8171
rwrist 3.64201
rhand -9.86796 15.5354
rfingers 7.12502
rthumb 16.1108 -13.8149
lclavicle -9.14409e-015 1.03368e-014
lhumerus -30.848 4.91064 85.141
lradius 31.9067
lwrist -8.05634
lhand -17.0266 19.9566
lfingers 7.12502
lthumb 9.20966 49.7355
rfemur -11.1012 5.79884 21.1031
rtibia 21.4248
rfoot -10.8409 -9.59849
rtoes 2.48348
lfemur -11.6641 -1.6573 -21.3814
ltibia 21.3405
lfoot -12.3001 6.6036
ltoes 1.95506
77
root 1.12297 17.8077 -17.0325 6.15832 -2.59808 0.117275
lowerback 5.69534 -0.601062 -1.64576
upperback -0.277169 -0.841859 2.04519
thorax -3.4269 -0.371734 3.11115
lowerneck -17.6392 -5.49693 -10.4857
upperneck 17.3266 -6.25338 7.12376
head 8.89529 -2.90285 3.33418
rclavicle -7.7526e-015 -7.15625e-015
rhumerus -31.0124 -5.51448 -82.614
rradius 33.995
rwrist 3.47658
rhand -9.95443 15.6487
rfingers 7.12502
rthumb 16.0275 -13.7083
lclavicle -7.7526e-015 -7.15625e-015
lhumerus -30.8258 4.82466 85.1545
lradius 31.9505
lwrist -7.98727
lhand -19.4596 17.1388
lfingers 7.12502
lthumb 6.86146 47.0076
rfemur -11.0658 5.86428 21.143
rtibia 21.4322
rfoot -10.8608 -9.76279
rtoes 2.23649
lfemur -11.6231 -1.71243 -21.3355
ltibia 21.2835
lfoot -12.248 6.53848
ltoes 2.32993
78
root 1.12289 17.8071 -17.0299 6.12842 -2.5641 0.193808
lowerback 5.72612 -0.583158 -1.70923
upperback -0.268201 -0.82361 2.01572
thorax -3.43569 -0.361727 3.11529
lowerneck -17.6747 -5.51781 -10.4591
upperneck 17.3928 -6.29176 7.13581
head 8.92742 -2.91737 3.32866
rclavicle -8.05078e-015 3.97569e-015
rhumerus -31.1111 -5.46521 -82.6442
rradius 34.2575
rwrist 3.44539
rhand -9.8783 15.1762
rfingers 7.12502
rthumb 16.1008 -14.1749
lclavicle -8.05078e-015 3.97569e-015
lhumerus -30.7886 4.71815 85.1825
lradius 31.9878
lwrist -8.03631
lhand -16.1982 19.5277
lfingers 7.12502
lthumb 10.0089 49.2697
rfemur -11.0275 5.85727 21.0631
rtibia 21.4382
rfoot -10.907 -9.85061
rtoes 2.00735
lfemur -11.5761 -1.74587 -21.4153
ltibia 21.2493
lfoot -12.1673 6.45983
ltoes 2.70846
79
root 1.12563 17.8088 -17.0267 6.16719 -2.61504 0.22835
lowerback 5.68151 -0.564248 -1.72757
upperback -0.327543 -0.799456 1.99879
thorax -3.47363 -0.34831 3.10602
lowerneck -17.5176 -5.50725 -10.4223
upperneck 17.376 -6.30112 7.12562
head 8.89285 -2.92365 3.32002
rclavicle 9.93923e-016 2.42517e-014
rhumerus -31.2356 -5.35115 -82.6944
rradius 34.4401
rwrist 3.29432
rhand -9.62964 14.4875
rfingers 7.12502
rthumb 16.3403 -14.8441
lclavicle 9.93923e-016 2.42517e-014
lhumerus -30.9611 4.68446 85.1726
lradius 32.0787
lwrist -8.05128
lhand -19.0623 18.4295
lfingers 7.12502
lthumb 7.24505 48.2854
rfemur -11.0741 5.77189 21.0032
rtibia 21.4521
rfoot -10.9691 -9.77633
rtoes 1.65203
lfemur -11.6102 -1.73869 -21.4802
ltibia 21.2724
lfoot -12.1224 6.47238
ltoes 3.02872
80
root 1.1273 17.8081 -17.0288 6.24372 -2.61088 0.175914
lowerback 5.65633 -0.571535 -1.66243
upperback -0.373698 -0.803246 2.0267
thorax -3.50747 -0.350156 3.09872
lowerneck -17.5039 -5.48704 -10.4422
upperneck 17.4029 -6.27465 7.1441
head 8.89838 -2.91113 3.33386
rclavicle -4.57205e-015 -3.22031e-014
rhumerus -31.2231 -5.18581 -82.7293
rradius 34.4699
rwrist 3.11793
rhand -9.55141 14.153
rfingers 7.12502
rthumb 16.4156 -15.1724
lclavicle -4.57205e-015 -3.22031e-014
lhumerus -31.0613 4.68863 85.1939
lradius 32.1466
lwrist -7.97853
lhand -16.1078 22.1053
lfingers 7.12502
lthumb 10.0962 51.8431
rfemur -11.1721 5.67484 21.0422
rtibia 21.4681
rfoot -10.9926 -9.6576
rtoes 1.80685
lfemur -11.7118 -1.69718 -21.4315
ltibia 21.3195
lfoot -12.1888 6.48848
ltoes 2.576
81
root 1.12559 17.8052 -17.0325 6.21639 -2.59337 0.12816
lowerback 5.77064 -0.582645 -1.63647
upperback -0.37609 -0.81622 2.05168
thorax -3.57344 -0.355877 3.1132
lowerneck -17.5617 -5.46995 -10.4128
upperneck 17.4264 -6.24849 7.11924
head 8.91237 -2.89838 3.32347
rclavicle 1.47101e-014 -1.19271e-015
rhumerus -31.1732 -5.11585 -82.7495
rradius 34.4249
rwrist 3.09385
rhand -9.55618 14.2029
rfingers 7.12502
rthumb 16.411 -15.1229
lclavicle 1.47101e-014 -1.19271e-015
lhumerus -31.0102 4.76028 85.1851
lradius 32.0916
lwrist -8.02423
lhand -18.7889 19.7449
lfingers 7.12502
lthumb 7.50892 49.5916
rfemur -11.1513 5.75698 21.1055
rtibia 21.4791
rfoot -10.9473 -9.69988
rtoes 2.32015
lfemur -11.7343 -1.63079 -21.3614
ltibia 21.3715
lfoot -12.2652 6.41902
ltoes 2.5248
82
root 1.12504 17.804 -17.0343 6.14235 -2.64607 0.100984
lowerback 5.91341 -0.559101 -1.63316
upperback -0.38358 -0.785127 2.06316
thorax -3.66352 -0.338959 3.12324
lowerneck -17.473 -5.48024 -10.4223
upperneck 17.3965 -6.26997 7.12717
head 8.88895 -2.90999 3.32579
rclavicle 2.98177e-016 7.55382e-015
rhumerus -31.21 -5.10257 -82.7576
rradius 34.4774
rwrist 3.10466
rhand -9.54794 14.2274
rfingers 7.12502
rthumb 16.4189 -15.0977
lclavicle 2.98177e-016 7.55382e-015
lhumerus -31.0043 4.78314 85.1755
lradius 32.0573
lwrist -8.02274
lhand -15.7515 23.2217
lfingers 7.12502
lthumb 10.4399 52.9425
rfemur -11.1002 5.79985 21.1459
rtibia 21.513
rfoot -10.9411 -9.72402
rtoes 1.99835
lfemur -11.672 -1.61991 -21.3352
ltibia 21.4138
lfoot -12.3247 6.48318
ltoes 2.6069
83
root 1.12547 17.8048 -17.0338 6.1563 -2.67257 0.21456
lowerback 5.89644 -0.534016 -1.72179
upperback -0.390391 -0.759138 2.02605
thorax -3.66213 -0.3246 3.13224
lowerneck -17.3662 -5.50477 -10.4743
upperneck 17.346 -6.30681 7.16401
head 8.85928 -2.92893 3.34306
rclavicle -7.45443e-015 1.98785e-015
rhumerus -31.2925 -5.03466 -82.7797
rradius 34.6712
rwrist 2.95664
rhand -9.51474 14.474
rfingers 7.12502
rthumb 16.4509 -14.8485
lclavicle -7.45443e-015 1.98785e-015
lhumerus -31.0346 4.70296 85.2104
lradius 32.0852
lwrist -7.95373
lhand -18.7495 19.7146
lfingers 7.12502
lthumb 7.54696 49.5599
rfemur -11.1513 5.77127 21.0173
rtibia 21.5701
rfoot -10.9389 -9.7085
rtoes 1.70794
lfemur -11.677 -1.58623 -21.4717
ltibia 21.4121
lfoot -12.3752 6.51219
ltoes 2.28342
84
root 1.12679 17.8045 -17.0364 6.18676 -2.68345 0.284635
lowerback 5.93499 -0.526589 -1.7576
upperback -0.412962 -0.753079 1.99551
thorax -3.70759 -0.320237 3.12115
lowerneck -17.3035 -5.51226 -10.4795
upperneck 17.2806 -6.32605 7.19565
head 8.82885 -2.93604 3.35259
rclavicle 8.94531e-016 -3.97569e-016
rhumerus -31.3241 -4.95032 -82.8198
rradius 34.7943
rwrist 2.88697
rhand -9.54888 14.8719
rfingers 7.12502
rthumb 16.418 -14.4533
lclavicle 8.94531e-016 -3.97569e-016
lhumerus -31.1109 4.61274 85.2221
lradius 32.1421
lwrist -7.92155
lhand -16.0408 20.4836
lfingers 7.12502
lthumb 10.1608 50.2183
rfemur -11.24 5.73747 20.9234
rtibia 21.6496
rfoot -11.0603 -9.65965
rtoes 2.02447
lfemur -11.7134 -1.6033 -21.5491
ltibia 21.3814
lfoot -12.3262 6.46241
ltoes 2.48426
85
root 1.12697 17.8036 -17.0392 6.14814 -2.71363 0.317981
lowerback 6.09445 -0.518583 -1.81095
upperback -0.457027 -0.746833 2.01202
thorax -3.84272 -0.313329 3.17128
lowerneck -17.2262 -5.48996 -10.5292
upperneck 17.3072 -6.29249 7.19949
head 8.82279 -2.92505 3.36809
rclavicle -1.16289e-014 2.22639e-014
rhumerus -31.362 -4.90222 -82.8096
rradius 34.7953
rwrist 2.96861
rhand -9.61251 15.2974
rfingers 7.12502
rthumb 16.3568 -14.0328
lclavicle -1.16289e-014 2.22639e-014
lhumerus -31.167 4.70971 85.2344
lradius 32.0884
lwrist -7.98664
lhand -18.9219 18.1357
lfingers 7.12502
lthumb 7.38052 47.9869
rfemur -11.2704 5.75159 20.8839
rtibia 21.763
rfoot -11.0828 -9.66841
rtoes 1.91936
lfemur -11.6673 -1.5954 -21.592
ltibia 21.3485
lfoot -12.2462 6.44853
ltoes 2.85621
86
root 1.12835 17.802 -17.0375 6.14929 -2.73176 0.306761
lowerback 6.1135 -0.505222 -1.77086
upperback -0.437811 -0.726241 2.01492
thorax -3.83533 -0.304214 3.14982
lowerneck -17.2784 -5.47377 -10.5687
upperneck 17.3401 -6.2647 7.2421
head 8.84347 -2.90932 3.39272
rclavicle 1.25234e-014 1.15295e-014
rhumerus -31.3701 -4.86362 -82.8239
rradius 34.9604
rwrist 2.84054
rhand -9.52099 15.3345
rfingers 7.12502
rthumb 16.4449 -13.9885
lclavicle 1.25234e-014 1.15295e-014
lhumerus -31.093 4.73529 85.2607
lradius 32.0563
lwrist -8.0371
lhand -15.766 23.0132
lfingers 7.12502
lthumb 10.4259 52.7346
rfemur -11.338 5.66385 20.8864
rtibia 21.884
rfoot -11.1098 -9.55993
rtoes 1.81951
lfemur -11.6678 -1.5478 -21.59
ltibia 21.3514
lfoot -12.2647 6.47082
ltoes 2.67576
87
root 1.12734 17.7994 -17.04 6.14463 -2.69509 0.315678
lowerback 6.13239 -0.516357 -1.76474
upperback -0.352228 -0.741493 2.01148
thorax -3.75625 -0.314104 3.14335
lowerneck -17.4325 -5.48 -10.5949
upperneck 17.2866 -6.26209 7.31375
head 8.8558 -2.8988 3.41952
rclavicle -9.54166e-015 1.11319e-014
rhumerus -31.24 -4.79076 -82.8714
rradius 35.1088
rwrist 2.7946
rhand -9.47584 15.3107
rfingers 7.12502
rthumb 16.4883 -14.0087
lclavicle -9.54166e-015 1.11319e-014
lhumerus -30.922 4.76859 85.2655
lradius 32.085
lwrist -8.02123
lhand -18.641 20.1928
lfingers 7.12502
lthumb 7.65163 50.0344
rfemur -11.4031 5.62551 20.8806
rtibia 22.01
rfoot -11.2107 -9.52509
rtoes 1.9498
lfemur -11.7045 -1.53027 -21.5899
ltibia 21.3629
lfoot -12.2613 6.50841
ltoes 2.46334
88
root 1.12662 17.7964 -17.046 6.14255 -2.55075 0.370369
lowerback 6.29908 -0.575916 -1.81546
upperback -0.377 -0.825919 2.01494
thorax -3.86942 -0.352984 3.18675
lowerneck -17.3591 -5.48236 -10.63
upperneck 17.2189 -6.26549 7.33741
head 8.82197 -2.90153 3.43345
rclavicle 9.44227e-015 -1.03368e-014
rhumerus -31.3226 -4.52587 -82.9529
rradius 35.3684
rwrist 2.67264
rhand -9.50646 15.4186
rfingers 7.12502
rthumb 16.4589 -13.9032
lclavicle 9.44227e-015 -1.03368e-014
lhumerus -31.0633 4.6356 85.3047
lradius 32.3267
lwrist -7.88526
lhand -15.6959 23.2779
lfingers 7.12502
lthumb 10.4935 52.996
rfemur -11.4637 5.55562 20.8387
rtibia 22.1394
rfoot -11.2835 -9.63279
rtoes 1.96706
lfemur -11.7732 -1.63083 -21.6305
ltibia 21.4041
lfoot -12.2211 6.44374
ltoes 2.20385
